<svg width="24" height="24" viewBox="0 0 24 24" fill="none" xmlns="http://www.w3.org/2000/svg">
<path d="M8.41162 4.32166C8.70262 4.24066 8.40862 4.32066 8.73062 4.26066C9.74262 4.07266 10.9106 3.98666 12.2496 3.98666C12.8946 3.98666 13.4996 4.00666 14.0666 4.04766" stroke="black" stroke-width="1.5" stroke-linecap="round" stroke-linejoin="round"/>
<path d="M12.2494 22.5345C5.29434 22.5345 2.97534 20.2165 2.97534 13.2605C2.97534 9.13348 3.79134 6.63848 5.90834 5.29248" stroke="black" stroke-width="1.5" stroke-linecap="round" stroke-linejoin="round"/>
<path d="M16.2707 4.36572C20.1327 5.26572 21.5247 7.87072 21.5247 13.2607C21.5247 19.1167 19.8807 21.6857 15.2097 22.3517" stroke="black" stroke-width="1.5" stroke-linecap="round" stroke-linejoin="round"/>
<path d="M3.25049 9.80884H21.2585" stroke="black" stroke-width="1.5" stroke-linecap="round" stroke-linejoin="round"/>
<path d="M16.6533 13.7458H16.6623" stroke="black" stroke-width="1.5" stroke-linecap="round" stroke-linejoin="round"/>
<path d="M12.2544 13.7458H12.2634" stroke="black" stroke-width="1.5" stroke-linecap="round" stroke-linejoin="round"/>
<path d="M7.84644 13.7458H7.85544" stroke="black" stroke-width="1.5" stroke-linecap="round" stroke-linejoin="round"/>
<path d="M16.6533 17.5979H16.6623" stroke="black" stroke-width="1.5" stroke-linecap="round" stroke-linejoin="round"/>
<path d="M12.2544 17.5979H12.2634" stroke="black" stroke-width="1.5" stroke-linecap="round" stroke-linejoin="round"/>
<path d="M7.84644 17.5979H7.85544" stroke="black" stroke-width="1.5" stroke-linecap="round" stroke-linejoin="round"/>
<path d="M16.2583 2.53491V5.79691" stroke="black" stroke-width="1.5" stroke-linecap="round" stroke-linejoin="round"/>
<path d="M8.25049 2.53491V5.79691" stroke="black" stroke-width="1.5" stroke-linecap="round" stroke-linejoin="round"/>
</svg>
