<svg width="25" height="25" viewBox="0 0 25 25" fill="none" xmlns="http://www.w3.org/2000/svg">
<path fill-rule="evenodd" clip-rule="evenodd" d="M17.9641 4.97278V3.36978C17.9641 2.95578 17.6281 2.61978 17.2141 2.61978C16.8001 2.61978 16.4641 2.95578 16.4641 3.36978V6.63278C16.4641 6.89278 16.6051 7.11178 16.8071 7.24578C16.6881 7.32578 16.5531 7.38278 16.3991 7.38278C15.9851 7.38278 15.6491 7.04678 15.6491 6.63278V4.46678C14.8471 4.37078 13.9731 4.32178 13.0101 4.32178C11.8761 4.32178 10.8651 4.38978 9.95609 4.52678V3.36978C9.95609 2.95578 9.62009 2.61978 9.20609 2.61978C8.79209 2.61978 8.45609 2.95578 8.45609 3.36978V6.63278C8.45609 6.89278 8.59709 7.11178 8.79909 7.24578C8.68009 7.32578 8.54509 7.38278 8.39109 7.38278C7.97709 7.38278 7.64109 7.04678 7.64109 6.63278V5.10278C5.50709 5.92578 4.25509 7.45678 3.66309 9.89478H22.3581C21.7301 7.30878 20.3421 5.75678 17.9641 4.97278Z" fill="black"/>
<path fill-rule="evenodd" clip-rule="evenodd" d="M17.4231 15.3312C17.0091 15.3312 16.6691 14.9952 16.6691 14.5812C16.6691 14.1672 17.0001 13.8312 17.4141 13.8312H17.4231C17.8371 13.8312 18.1731 14.1672 18.1731 14.5812C18.1731 14.9952 17.8371 15.3312 17.4231 15.3312ZM17.4231 19.1842C17.0091 19.1842 16.6691 18.8482 16.6691 18.4342C16.6691 18.0192 17.0001 17.6842 17.4141 17.6842H17.4231C17.8371 17.6842 18.1731 18.0192 18.1731 18.4342C18.1731 18.8482 17.8371 19.1842 17.4231 19.1842ZM13.0241 15.3312C12.6101 15.3312 12.2691 14.9952 12.2691 14.5812C12.2691 14.1672 12.6011 13.8312 13.0151 13.8312H13.0241C13.4381 13.8312 13.7741 14.1672 13.7741 14.5812C13.7741 14.9952 13.4381 15.3312 13.0241 15.3312ZM13.0241 19.1842C12.6101 19.1842 12.2691 18.8482 12.2691 18.4342C12.2691 18.0192 12.6011 17.6842 13.0151 17.6842H13.0241C13.4381 17.6842 13.7741 18.0192 13.7741 18.4342C13.7741 18.8482 13.4381 19.1842 13.0241 19.1842ZM8.61608 15.3312C8.20208 15.3312 7.86108 14.9952 7.86108 14.5812C7.86108 14.1672 8.19308 13.8312 8.60708 13.8312H8.61608C9.03008 13.8312 9.36608 14.1672 9.36608 14.5812C9.36608 14.9952 9.03008 15.3312 8.61608 15.3312ZM8.61608 19.1842C8.20208 19.1842 7.86108 18.8482 7.86108 18.4342C7.86108 18.0192 8.19308 17.6842 8.60708 17.6842H8.61608C9.03008 17.6842 9.36608 18.0192 9.36608 18.4342C9.36608 18.8482 9.03008 19.1842 8.61608 19.1842ZM22.6301 11.3942H3.39108C3.28908 12.2142 3.23608 13.1072 3.23608 14.0962C3.23608 21.3112 5.79408 23.8692 13.0101 23.8692C20.2271 23.8692 22.7851 21.3112 22.7851 14.0962C22.7851 13.1072 22.7321 12.2142 22.6301 11.3942Z" fill="black"/>
</svg>
