<svg width="14" height="14" viewBox="0 0 14 14" fill="none" xmlns="http://www.w3.org/2000/svg">
<path d="M11.5221 8.99218C11.1354 6.67864 8.91362 4.79767 6.56731 4.79767C4.01781 4.79767 1.77637 6.86215 1.56009 9.40508C1.47488 10.3882 1.78947 11.3188 2.43831 12.0201C3.0806 12.7214 3.98504 13.1081 4.96813 13.1081H8.03539C9.14301 13.1081 10.113 12.6755 10.7749 11.8956C11.4369 11.1157 11.699 10.0801 11.5221 8.99218Z" fill="#292D32"/>
<path d="M5.75404 3.84061C6.8146 3.84061 7.67434 2.98086 7.67434 1.9203C7.67434 0.859752 6.8146 0 5.75404 0C4.69349 0 3.83374 0.859752 3.83374 1.9203C3.83374 2.98086 4.69349 3.84061 5.75404 3.84061Z" fill="#292D32"/>
<path d="M10.1192 4.6064C11.0024 4.6064 11.7183 3.89043 11.7183 3.00724C11.7183 2.12405 11.0024 1.40808 10.1192 1.40808C9.23597 1.40808 8.52002 2.12405 8.52002 3.00724C8.52002 3.89043 9.23597 4.6064 10.1192 4.6064Z" fill="#292D32"/>
<path d="M12.4851 7.16429C13.1909 7.16429 13.7631 6.59206 13.7631 5.8862C13.7631 5.1804 13.1909 4.60822 12.4851 4.60822C11.7793 4.60822 11.207 5.1804 11.207 5.8862C11.207 6.59206 11.7793 7.16429 12.4851 7.16429Z" fill="#292D32"/>
<path d="M1.59916 5.88646C2.48235 5.88646 3.19832 5.17047 3.19832 4.28727C3.19832 3.40408 2.48235 2.68811 1.59916 2.68811C0.715972 2.68811 0 3.40408 0 4.28727C0 5.17047 0.715972 5.88646 1.59916 5.88646Z" fill="#292D32"/>
</svg>
