<svg width="15" height="15" viewBox="0 0 15 15" fill="none" xmlns="http://www.w3.org/2000/svg">
<path d="M2.1979 10.5023C2.03701 12.4397 3.49845 14.0218 5.44256 14.0218H8.65368C10.8391 14.0218 12.3408 12.2587 11.9788 10.1001C11.5967 7.8342 9.41122 5.97723 7.1118 5.97723C4.61799 5.97723 2.40572 8.0152 2.1979 10.5023Z" stroke="#292D32" stroke-width="1.00558" stroke-linecap="round" stroke-linejoin="round"/>
<path d="M6.26045 4.30126C7.18605 4.30126 7.93642 3.55091 7.93642 2.6253C7.93642 1.6997 7.18605 0.949341 6.26045 0.949341C5.33483 0.949341 4.58447 1.6997 4.58447 2.6253C4.58447 3.55091 5.33483 4.30126 6.26045 4.30126Z" stroke="#292D32" stroke-width="1.00558" stroke-linecap="round" stroke-linejoin="round"/>
<path d="M10.8393 5.10567C11.5798 5.10567 12.1801 4.50539 12.1801 3.7649C12.1801 3.02442 11.5798 2.42413 10.8393 2.42413C10.0989 2.42413 9.49854 3.02442 9.49854 3.7649C9.49854 4.50539 10.0989 5.10567 10.8393 5.10567Z" stroke="#292D32" stroke-width="1.00558" stroke-linecap="round" stroke-linejoin="round"/>
<path d="M13.3198 7.78725C13.8751 7.78725 14.3254 7.33702 14.3254 6.78167C14.3254 6.22626 13.8751 5.77606 13.3198 5.77606C12.7644 5.77606 12.3142 6.22626 12.3142 6.78167C12.3142 7.33702 12.7644 7.78725 13.3198 7.78725Z" stroke="#292D32" stroke-width="1.00558" stroke-linecap="round" stroke-linejoin="round"/>
<path d="M1.90302 6.44646C2.64351 6.44646 3.24379 5.84615 3.24379 5.10566C3.24379 4.36517 2.64351 3.76489 1.90302 3.76489C1.16254 3.76489 0.562256 4.36517 0.562256 5.10566C0.562256 5.84615 1.16254 6.44646 1.90302 6.44646Z" stroke="#292D32" stroke-width="1.00558" stroke-linecap="round" stroke-linejoin="round"/>
</svg>
