<svg width="24" height="24" viewBox="0 0 24 24" fill="none" xmlns="http://www.w3.org/2000/svg">
<path d="M21.2501 6.70623C21.2501 9.5 20.6541 10.3802 17.5771 10.3802C14.5 10.3802 13.9041 9.5 13.9041 6.70623C13.9041 3.62423 15 3.03223 17.5771 3.03223C18.5 3.03223 19.0011 3.25023 19.5761 3.62423" stroke="black" stroke-width="1.5" stroke-linecap="round" stroke-linejoin="round"/>
<path fill-rule="evenodd" clip-rule="evenodd" d="M10.597 6.70623C10.597 9.91245 10 10.3802 6.923 10.3802C3.846 10.3802 3.25 9.64366 3.25 6.70623C3.25 3.76879 3.846 3.03223 6.923 3.03223C10 3.03223 10.597 3.5 10.597 6.70623Z" stroke="black" stroke-width="1.5" stroke-linecap="round" stroke-linejoin="round"/>
<path fill-rule="evenodd" clip-rule="evenodd" d="M21.2501 17.2945C21.2501 20.089 20.5 20.9675 17.5771 20.9675C14.6541 20.9675 13.9041 20.5 13.9041 17.2945C13.9041 14.5 14.6541 13.6205 17.5771 13.6205C20.5 13.6205 21.2501 14.5 21.2501 17.2945Z" stroke="black" stroke-width="1.5" stroke-linecap="round" stroke-linejoin="round"/>
<path d="M3.734 19.1176C3.426 18.5806 3.25 17.9576 3.25 17.2946C3.25 14.5 3.846 13.6206 6.923 13.6206C10 13.6206 10.597 14.5 10.597 17.2946C10.597 20.0892 10 20.9676 6.923 20.9676" stroke="black" stroke-width="1.5" stroke-linecap="round" stroke-linejoin="round"/>
</svg>
